# xmcd
#
# Track frame offsets:
#	150
#	13301
#	26791
#	41785
#	54210
#	69873
#	81847
#	93426
#	104359
#	118934
#
# Disc length: 1841 seconds
#
# Revision: 1
# Processed by: cddbd v1.5.2PL0 Copyright (c) Steve Scherf et al.
# Submitted via: audiograbber 1.83.01
#
DISCID=81072f0a
DTITLE=Réal V. Benoit et Claude R. Knight - À ceux qui m'aiment
DYEAR=2010
DGENRE=Chanson
TTITLE0=Les moins bons moment
TTITLE1=Pauvres pauvres
TTITLE2=Sans dessin
TTITLE3=D'un coup bang
TTITLE4=Les choses en ogues
TTITLE5=Moi j'ai toi
TTITLE6=Ma vie me ment
TTITLE7=L'Amour vainc tout
TTITLE8=Une main, une oreille, un sourire
TTITLE9=À ceux qui m'aiment
EXTD=Productions KB Inc.\nWeb: www.realvbenoit.com\nCourriel: realvbenoit@hotma
EXTD=il.com\n447 Delorimier, R-N. Qc.  J9X 5H2\nPKB 181209
EXTT0=
EXTT1=
EXTT2=
EXTT3=
EXTT4=
EXTT5=
EXTT6=
EXTT7=
EXTT8=
EXTT9=
PLAYORDER=
